<svg id="Layer_1" data-name="Layer 1" xmlns="http://www.w3.org/2000/svg" xmlns:xlink="http://www.w3.org/1999/xlink" viewBox="0 0 98.6853 95.3746">
  <defs>
    <linearGradient id="linear-gradient" x1="82.1362" y1="75.0929" x2="2.3033" y2="75.0929" gradientUnits="userSpaceOnUse">
      <stop offset="0" stop-color="#7b1c58"/>
      <stop offset="1" stop-color="#7276b1"/>
    </linearGradient>
  </defs>
  <g id="logoMark">
    <path id="logoMark_PathItem_" data-name="logoMark &lt;PathItem&gt;" d="M49.8516,90.6211a4.4412,4.4412,0,0,0-1.3513.7451c-1.6354,1.4095-.1139,3.1617,3.0714,3.5374,3.9938.471,6.2942-1.5091,4.9022-3.2578C55.4912,90.4112,52.7454,89.69,49.8516,90.6211Z" style="fill: #f4c47f"/>
    <path id="logoMark_PathItem_2" data-name="logoMark &lt;PathItem&gt;" d="M78.5952,77.2208c-3.2866,1.9317-4.7173,5.547-3.7106,7.2523,1.4354,2.4313,5.9542-1.135,7.0227-4.7759C82.5814,77.4,81.5067,75.8,78.5952,77.2208Z" style="fill: #7276b1"/>
    <path id="logoMark_PathItem_3" data-name="logoMark &lt;PathItem&gt;" d="M89.7533,70.8511c-2.9024,2.1612-4.7655,7.2042-4.2784,8.5174.518,1.3963,3.5815-2.0592,5.0573-5.26a10.0112,10.0112,0,0,0,.6377-1.74C91.2413,72.0807,91.8078,69.5941,89.7533,70.8511Z" style="fill: url(#linear-gradient)"/>
    <path id="logoMark_PathItem_4" data-name="logoMark &lt;PathItem&gt;" d="M32.6829,82.28a5.147,5.147,0,0,0-1.2736.6162c-2.6888,1.9361-.2115,5.65,4.3453,6.5147,4.5662.8663,6.9547-1.95,5.1936-4.5852A7.861,7.861,0,0,0,32.6829,82.28Z" style="fill: #7276b1"/>
    <path id="logoMark_PathItem_5" data-name="logoMark &lt;PathItem&gt;" d="M50.6262,75.3234c-5.0043,2.2821-4.9681,6.6161-1.2883,8.31,4.8242,2.2207,11.0535-1.5536,9.66-5.8528C58.3346,75.7346,55.2989,73.62,50.6262,75.3234Z" style="fill: #7276b1"/>
    <path id="logoMark_PathItem_6" data-name="logoMark &lt;PathItem&gt;" d="M96.0444,50.2688c-3.11,2.9532-3.7985,10.5468-2.2229,12.2251,1.5359,1.636,3.9622-3.0362,4.5121-7.5578C98.6853,52.0444,98.2075,48.6845,96.0444,50.2688Z" style="fill: #f4c47f"/>
    <path id="logoMark_PathItem_7" data-name="logoMark &lt;PathItem&gt;" d="M20.5972,26.3967c-4.04,1.6945-4.8135,7.1466-2.2469,9.2911,3.2238,2.6935,8.4826-1.1389,7.8153-5.6953A4.2209,4.2209,0,0,0,20.5972,26.3967Z" style="fill: #f4c47f"/>
    <path id="logoMark_PathItem_8" data-name="logoMark &lt;PathItem&gt;" d="M36.01,19.7663c-4.6543,2.3624-4.0063,8.2737-.0188,9.7915,4.4524,1.6948,9.1175-2.69,7.3407-6.8989A5.6261,5.6261,0,0,0,36.01,19.7663Z" style="fill: #7276b1"/>
    <path id="logoMark_PathItem_9" data-name="logoMark &lt;PathItem&gt;" d="M68.2175,13.8844c3.6165-.0459,4.3323-3.4654,1.2981-6.2015-1.7547-1.5823-5.3145-3.1787-7.7347-1.7741-.0823.0655-.1976.1465-.2745.2182C58.9524,8.5048,63.6565,13.9423,68.2175,13.8844Z" style="fill: #f4c47f"/>
    <path id="logoMark_PathItem_10" data-name="logoMark &lt;PathItem&gt;" d="M77.5091,6.64c1.7142-.3644.58-2.6553-2.289-4.625-1.8749-1.287-5.004-2.66-6.09-1.6844C67.81,2.41,75.0976,7.1527,77.5091,6.64Z" style="fill: #7276b1"/>
    <path id="logoMark_PathItem_11" data-name="logoMark &lt;PathItem&gt;" d="M2.2074,49.9158c-3.4541.8671-2.5212,8.2121.5021,10.1646,2.3635,1.5265,4.4487-1.1658,3.847-4.9668C6.1968,52.8412,4.61,49.7262,2.2074,49.9158Z" style="fill: #f4c47f"/>
    <path id="logoMark_PathItem_12" data-name="logoMark &lt;PathItem&gt;" d="M16.09,45.9481c-4.7818,1.7952-4.6856,8.2659-.915,10.6882,4.0142,2.579,8.7979-1.2583,7.7552-6.2211A5.5853,5.5853,0,0,0,16.09,45.9481Z" style="fill: #7276b1"/>
    <path id="logoMark_PathItem_13" data-name="logoMark &lt;PathItem&gt;" d="M34.3282,38.8127c-5.8332,2.7026-5.7472,9.2951-1.288,11.5566,5.2468,2.6609,11.7348-2.38,10.0612-7.8174C42.3643,40.1576,39.3308,37.0254,34.3282,38.8127Z" style="fill: #7276b1"/>
    <path id="logoMark_PathItem_14" data-name="logoMark &lt;PathItem&gt;" d="M90.1458,48.3648l-.2.2c-2,2.19-2.83,6.94-.96,9.35a5.03,5.03,0,0,1,.93,3.69c-.28,4.28-3.61,8.64-6.45,8.64a2.7193,2.7193,0,0,1-2.1-1.02c-1.53-1.54-4.54.06-5.69,3-2.34,6.04-9.31,6.81-11,2.47a4.5874,4.5874,0,0,1-.28-1.64,4.7338,4.7338,0,0,1,.04-.65c.45-4.37-3.42-6.99-8.45-5.71a.69.69,0,0,0,.1-.04,8.55,8.55,0,0,1-6.41-.24c-5.6-2.55-5.18-9.96.43-13.16a7.7345,7.7345,0,0,0,3.8-6.46,6.9028,6.9028,0,0,0-2.65-5.43c-3.53-2.83-3.62-8.53,1.37-11.3a7.1778,7.1778,0,0,1,6.58.14c3.13,1.6,6.46-.26,6.37-3.54a.09.09,0,0,0,.01.05,5.8476,5.8476,0,0,1,2.64-5.62c4.06-2.13,8,.68,9.5,3.36a7.7275,7.7275,0,0,1,1,3.3,6.4614,6.4614,0,0,1-.5284,3.0006,5.707,5.707,0,0,1-1.7725,2.2466,5.4524,5.4524,0,0,1-2.7238,1.0538,6.5782,6.5782,0,0,1-3.5972-.6946c-.0875-.0447-.1745-.0906-.2612-.1369a6.96,6.96,0,0,0-1.984-.82,4.3615,4.3615,0,0,0-1.6019-.0015,4.3036,4.3036,0,0,0-2.61,1.62,5.0283,5.0283,0,0,0-.9613,2.4622,7.5751,7.5751,0,0,1-.75,2.61,7.3315,7.3315,0,0,1-2.09,2.37c-3.67,2.69-4.78,8.46-.72,11.91a6.7527,6.7527,0,0,1,2.87,6.54c-.3,4.65,3.4,7.59,8.02,6.3a5.0605,5.0605,0,0,1,4.51.5c2.12,1.46,5.05-.15,6.07-3.31a10.6045,10.6045,0,0,1,3.37-5.25c2.72-2.18,3.74-7.16,1-9.66.02.01.03.02.05.03a5.7121,5.7121,0,0,1-1.03-1l.18.24c-1.67-1.72-4.01.1-4.22,2.54-.09-.27-.18-.55-.28-.83.1.28.19.57.28.86-.76,8.08-9.23,10.86-13.31,6.07-2.99-3.51-2.34-10.08,2.98-13.3a8.1316,8.1316,0,0,1,3.55-.91,6.632,6.632,0,0,1,4.51,1.86,2.4726,2.4726,0,0,0,1.7.71c1.32,0,2.59-1.16,2.63-3.24,0,.11.02.21.02.32-.12-2.8.76-5.68,2.95-7.32,3.73-2.19,6.53,1.43,7.33,4.71C93.2357,43.0248,92.1157,46.6348,90.1458,48.3648Z" style="fill: #7b1c58"/>
    <path id="logoMark_PathItem_15" data-name="logoMark &lt;PathItem&gt;" d="M85.4648,24.9932c3.7415.7969,4.6539-3.6124,1.6546-7.9965-1.5165-2.2167-4.8408-5.0862-7.3052-3.3491C76.782,16.6737,81.1188,24.0676,85.4648,24.9932Z" style="fill: #7276b1"/>
    <path id="logoMark_PathItem_16" data-name="logoMark &lt;PathItem&gt;" d="M30.7316,61.5655c-6.3369,2.6329-5.4579,9.6579-.1185,12.0813,5.9855,2.7168,12.705-2.1237,10.7309-7.73C40.3381,63.0593,36.3807,59.8205,30.7316,61.5655Z" style="fill: #f4c47f"/>
  </g>
</svg>
